<svg width="24" height="24" viewBox="0 0 24 24" fill="none" xmlns="http://www.w3.org/2000/svg">
<g clip-path="url(#clip0_183_17486)">
<path d="M1 12C1 4 4 1 12 1C20 1 23 4 23 12C23 20 20 23 12 23C4 23 1 20 1 12Z" fill="white"/>
<path d="M20.16 9L16.27 11.86V18.1H19C19.2983 18.1029 19.586 17.9898 19.8024 17.7845C20.0188 17.5793 20.1471 17.298 20.16 17V9Z" fill="#4CAF50"/>
<path d="M3.83984 9L7.71984 11.88V18.11H4.99984C4.69992 18.1128 4.41078 17.9983 4.19408 17.7909C3.97738 17.5836 3.85026 17.2998 3.83984 17V9Z" fill="#1E88E5"/>
<path d="M16.27 7.1001L12 10.2501L7.72998 7.1001V11.8701L12 15.0201L16.27 11.8701V7.1001Z" fill="#E53935"/>
<path d="M3.83984 7.52V9L7.71984 11.88V7.1L6.50984 6.21C6.22082 5.99504 5.87004 5.87928 5.50984 5.88C5.29232 5.87736 5.07643 5.91776 4.87458 5.99887C4.67273 6.07999 4.48892 6.20021 4.33371 6.35263C4.1785 6.50505 4.05496 6.68666 3.97021 6.887C3.88545 7.08735 3.84115 7.30247 3.83984 7.52Z" fill="#C62828"/>
<path d="M20.16 7.52V9L16.27 11.86V7.1L17.49 6.21C17.779 5.99504 18.1298 5.87928 18.49 5.88C18.7075 5.87736 18.9234 5.91776 19.1253 5.99887C19.3271 6.07999 19.5109 6.20021 19.6662 6.35263C19.8214 6.50505 19.9449 6.68666 20.0297 6.887C20.1144 7.08735 20.1587 7.30247 20.16 7.52Z" fill="#FBC02D"/>
</g>
<defs>
<clipPath id="clip0_183_17486">
<rect width="24" height="24" fill="white"/>
</clipPath>
</defs>
</svg>
