<svg width="24" height="24" viewBox="0 0 24 24" fill="none" xmlns="http://www.w3.org/2000/svg">
<g clip-path="url(#clip0_183_17479)">
<path d="M1 12C1 4 4 1 12 1C20 1 23 4 23 12C23 20 20 23 12 23C4 23 1 20 1 12Z" fill="#0BA1E6"/>
<path d="M16.9998 7.31981H6.99979C6.77582 7.31448 6.55305 7.35399 6.34459 7.43603C6.13612 7.51806 5.94617 7.64097 5.7859 7.7975C5.62564 7.95404 5.4983 8.14105 5.41138 8.34753C5.32446 8.55401 5.27972 8.77578 5.27979 8.99981V14.9998C5.27972 15.2238 5.32446 15.4456 5.41138 15.6521C5.4983 15.8586 5.62564 16.0456 5.7859 16.2021C5.94617 16.3587 6.13612 16.4816 6.34459 16.5636C6.55305 16.6456 6.77582 16.6851 6.99979 16.6798H7.99978V18.5998L9.20978 16.6798H16.9998C17.2237 16.6851 17.4465 16.6456 17.655 16.5636C17.8635 16.4816 18.0534 16.3587 18.2137 16.2021C18.3739 16.0456 18.5013 15.8586 18.5882 15.6521C18.6751 15.4456 18.7198 15.2238 18.7198 14.9998V8.99981C18.7198 8.77578 18.6751 8.55401 18.5882 8.34753C18.5013 8.14105 18.3739 7.95404 18.2137 7.7975C18.0534 7.64097 17.8635 7.51806 17.655 7.43603C17.4465 7.35399 17.2237 7.31448 16.9998 7.31981Z" fill="white"/>
<path d="M8.4002 13.1998C8.16286 13.1998 7.93085 13.1294 7.73351 12.9976C7.53617 12.8657 7.38237 12.6783 7.29154 12.459C7.20072 12.2398 7.17695 11.9985 7.22325 11.7657C7.26956 11.5329 7.38384 11.3191 7.55167 11.1513C7.71949 10.9835 7.93331 10.8692 8.16609 10.8229C8.39886 10.7766 8.64014 10.8003 8.85942 10.8911C9.07869 10.982 9.2661 11.1358 9.39796 11.3331C9.52982 11.5305 9.6002 11.7625 9.6002 11.9998C9.6002 12.3181 9.47377 12.6233 9.24872 12.8483C9.02368 13.0734 8.71846 13.1998 8.4002 13.1998ZM12.0002 13.1998C11.7629 13.1998 11.5309 13.1294 11.3335 12.9976C11.1362 12.8657 10.9824 12.6783 10.8915 12.459C10.8007 12.2398 10.777 11.9985 10.8233 11.7657C10.8696 11.5329 10.9838 11.3191 11.1517 11.1513C11.3195 10.9835 11.5333 10.8692 11.7661 10.8229C11.9989 10.7766 12.2401 10.8003 12.4594 10.8911C12.6787 10.982 12.8661 11.1358 12.998 11.3331C13.1298 11.5305 13.2002 11.7625 13.2002 11.9998C13.2002 12.3181 13.0738 12.6233 12.8487 12.8483C12.6237 13.0734 12.3185 13.1998 12.0002 13.1998ZM15.6002 13.1998C15.3629 13.1998 15.1309 13.1294 14.9335 12.9976C14.7362 12.8657 14.5824 12.6783 14.4915 12.459C14.4007 12.2398 14.377 11.9985 14.4233 11.7657C14.4696 11.5329 14.5838 11.3191 14.7517 11.1513C14.9195 10.9835 15.1333 10.8692 15.3661 10.8229C15.5989 10.7766 15.8401 10.8003 16.0594 10.8911C16.2787 10.982 16.4661 11.1358 16.598 11.3331C16.7298 11.5305 16.8002 11.7625 16.8002 11.9998C16.8002 12.3181 16.6738 12.6233 16.4487 12.8483C16.2237 13.0734 15.9185 13.1998 15.6002 13.1998Z" fill="#005DB1"/>
</g>
<defs>
<clipPath id="clip0_183_17479">
<rect width="24" height="24" fill="white"/>
</clipPath>
</defs>
</svg>
